<?xml version="1.0" encoding="UTF-8"?><svg version="1.1" xmlns="http://www.w3.org/2000/svg" xmlns:xlink="http://www.w3.org/1999/xlink" height="100%" width="100%" viewBox="0 0 690 710" x="0"   y="0"    preserveAspectRatio="xMinYMin"><rect x="155" y="0" height="510.0" width="390.0" style="stroke:#000000; fill: #ffffff" /><rect x="445" y="35" height="140" width="150" style="stroke:#000000; fill: #ffffff" stroke-dasharray="5"/><rect x="155" y="35" height="4.5" width="390.0" style="stroke:#000000; fill: #ffffff" /><rect x="155" y="475" height="4.5" width="390.0" style="stroke:#000000; fill: #ffffff" /><rect x="445" y="35" height="140" width="4" style="stroke:#000000; fill: #ffffff" stroke-dasharray="5"/><rect x="500" y="35" height="140" width="4" style="stroke:#000000; fill: #ffffff" stroke-dasharray="5"/><rect x="555" y="35" height="140" width="4" style="stroke:#000000; fill: #ffffff" stroke-dasharray="5"/><rect x="445" y="105" height="10.0" width="10.0" style="stroke:#000000; fill: #ffffff" /><rect x="595" y="105" height="10.0" width="10.0" style="stroke:#000000; fill: #ffffff" /><rect x="595" y="175" height="10.0" width="10.0" style="stroke:#000000; fill: #ffffff" /><rect x="595" y="35" height="10.0" width="10.0" style="stroke:#000000; fill: #ffffff" /><rect x="210" y="0" height="510.0" width="4.8" style="stroke:#000000; fill: #ffffff" /><rect x="265" y="0" height="510.0" width="4.8" style="stroke:#000000; fill: #ffffff" /><rect x="320" y="0" height="510.0" width="4.8" style="stroke:#000000; fill: #ffffff" /><rect x="375" y="0" height="510.0" width="4.8" style="stroke:#000000; fill: #ffffff" /><rect x="430" y="0" height="510.0" width="4.8" style="stroke:#000000; fill: #ffffff" /><rect x="485" y="0" height="510.0" width="4.8" style="stroke:#000000; fill: #ffffff" /><rect x="540" y="0" height="510.0" width="4.8" style="stroke:#000000; fill: #ffffff" /><rect x="250" y="32" height="10.0" width="10.0" style="stroke:#000000; fill: #ffffff" /><rect x="445" y="32" height="10.0" width="10.0" style="stroke:#000000; fill: #ffffff" /><rect x="250" y="472" height="10.0" width="10.0" style="stroke:#000000; fill: #ffffff" /><rect x="445" y="178" height="10.0" width="10.0" style="stroke:#000000; fill: #ffffff" /><rect x="445" y="472" height="10.0" width="10.0" style="stroke:#000000; fill: #ffffff" /><rect x="445" y="178" height="10.0" width="10.0" style="stroke:#000000; fill: #ffffff" /><text style="text-anchor: middle; stroke: #ffffff;" transform="translate(350,585) ">390cm</text><text style="text-anchor: middle; stroke: #ffffff;" transform="translate(75,255) rotate(-90)">510cm</text><line x1="250" y1="35" x2="445" y2="478" style="stroke:#000000; fill: #ffffff" stroke-dasharray="5" /><line x1="250" y1="472" x2="445" y2="38" style="stroke:#000000; fill: #ffffff" stroke-dasharray="5" /><line x1="100" y1="0" x2="100" y2="510" style="stroke:#ffffff;marker-start: url(#beginArrow) ;marker-end: url(#endArrow);" /><line x1="150" y1="540" x2="545" y2="540" style="stroke:#ffffff;marker-start: url(#beginArrow) ;marker-end: url(#endArrow);" /><marker id="endArrow" markerWidth="10%" markerHeight="10%" refX="12.0" refY="6.0" orient="auto"> <path d="M0,0 L12,6 L0,12 L0,0" style="fill: #ffffff;" /> </marker><marker id="beginArrow" markerWidth="10%" markerHeight="10%" refX="0.0" refY="6.0" orient="auto"> <path d="M0,6 L12,0 L12,12 L0,6" style="fill: #ffffff;" /> </marker></svg>