<?xml version="1.0" encoding="UTF-8"?><svg version="1.1" xmlns="http://www.w3.org/2000/svg" xmlns:xlink="http://www.w3.org/1999/xlink" height="100%" width="100%" viewBox="0 0 570 440" x="0"   y="0"    preserveAspectRatio="xMinYMin"><rect x="155" y="0" height="240.0" width="270.0" style="stroke:#000000; fill: #ffffff" /><rect x="155" y="35" height="4.5" width="270.0" style="stroke:#000000; fill: #ffffff" /><rect x="155" y="205" height="4.5" width="270.0" style="stroke:#000000; fill: #ffffff" /><rect x="210" y="0" height="240.0" width="4.8" style="stroke:#000000; fill: #ffffff" /><rect x="265" y="0" height="240.0" width="4.8" style="stroke:#000000; fill: #ffffff" /><rect x="320" y="0" height="240.0" width="4.8" style="stroke:#000000; fill: #ffffff" /><rect x="375" y="0" height="240.0" width="4.8" style="stroke:#000000; fill: #ffffff" /><rect x="190" y="32" height="10.0" width="10.0" style="stroke:#000000; fill: #ffffff" /><rect x="325" y="32" height="10.0" width="10.0" style="stroke:#000000; fill: #ffffff" /><rect x="190" y="202" height="10.0" width="10.0" style="stroke:#000000; fill: #ffffff" /><rect x="325" y="202" height="10.0" width="10.0" style="stroke:#000000; fill: #ffffff" /><text style="text-anchor: middle; stroke: #ffffff;" transform="translate(290,315) ">270cm</text><text style="text-anchor: middle; stroke: #ffffff;" transform="translate(75,120) rotate(-90)">240cm</text><line x1="190" y1="35" x2="325" y2="202" style="stroke:#000000; fill: #ffffff" stroke-dasharray="5" /><line x1="190" y1="202" x2="325" y2="32" style="stroke:#000000; fill: #ffffff" stroke-dasharray="5" /><line x1="100" y1="0" x2="100" y2="240" style="stroke:#ffffff;marker-start: url(#beginArrow) ;marker-end: url(#endArrow);" /><line x1="150" y1="270" x2="425" y2="270" style="stroke:#ffffff;marker-start: url(#beginArrow) ;marker-end: url(#endArrow);" /><marker id="endArrow" markerWidth="10%" markerHeight="10%" refX="12.0" refY="6.0" orient="auto"> <path d="M0,0 L12,6 L0,12 L0,0" style="fill: #ffffff;" /> </marker><marker id="beginArrow" markerWidth="10%" markerHeight="10%" refX="0.0" refY="6.0" orient="auto"> <path d="M0,6 L12,0 L12,12 L0,6" style="fill: #ffffff;" /> </marker></svg>