<svg height="100%" width="100%" viewBox="0 0 780 680" x="0"   y="0"    preserveAspectRatio="xMinYMin"><rect x="155" y="0" height="480.0" width="480.0" style="stroke:#000000; fill: #ffffff" /><rect x="535" y="35" height="140" width="150" style="stroke:#000000; fill: #ffffff" stroke-dasharray="5"/><rect x="155" y="35" height="4.5" width="480.0" style="stroke:#000000; fill: #ffffff" /><rect x="155" y="445" height="4.5" width="480.0" style="stroke:#000000; fill: #ffffff" /><rect x="535" y="35" height="140" width="4" style="stroke:#000000; fill: #ffffff" stroke-dasharray="5"/><rect x="590" y="35" height="140" width="4" style="stroke:#000000; fill: #ffffff" stroke-dasharray="5"/><rect x="645" y="35" height="140" width="4" style="stroke:#000000; fill: #ffffff" stroke-dasharray="5"/><rect x="535" y="105" height="10.0" width="10.0" style="stroke:#000000; fill: #ffffff" /><rect x="685" y="105" height="10.0" width="10.0" style="stroke:#000000; fill: #ffffff" /><rect x="685" y="175" height="10.0" width="10.0" style="stroke:#000000; fill: #ffffff" /><rect x="685" y="35" height="10.0" width="10.0" style="stroke:#000000; fill: #ffffff" /><rect x="210" y="0" height="480.0" width="4.8" style="stroke:#000000; fill: #ffffff" /><rect x="265" y="0" height="480.0" width="4.8" style="stroke:#000000; fill: #ffffff" /><rect x="320" y="0" height="480.0" width="4.8" style="stroke:#000000; fill: #ffffff" /><rect x="375" y="0" height="480.0" width="4.8" style="stroke:#000000; fill: #ffffff" /><rect x="430" y="0" height="480.0" width="4.8" style="stroke:#000000; fill: #ffffff" /><rect x="485" y="0" height="480.0" width="4.8" style="stroke:#000000; fill: #ffffff" /><rect x="540" y="0" height="480.0" width="4.8" style="stroke:#000000; fill: #ffffff" /><rect x="595" y="0" height="480.0" width="4.8" style="stroke:#000000; fill: #ffffff" /><rect x="215" y="32" height="10.0" width="10.0" style="stroke:#000000; fill: #ffffff" /><rect x="375" y="32" height="10.0" width="10.0" style="stroke:#000000; fill: #ffffff" /><rect x="535" y="32" height="10.0" width="10.0" style="stroke:#000000; fill: #ffffff" /><rect x="215" y="442" height="10.0" width="10.0" style="stroke:#000000; fill: #ffffff" /><rect x="535" y="178" height="10.0" width="10.0" style="stroke:#000000; fill: #ffffff" /><rect x="375" y="442" height="10.0" width="10.0" style="stroke:#000000; fill: #ffffff" /><rect x="535" y="178" height="10.0" width="10.0" style="stroke:#000000; fill: #ffffff" /><rect x="535" y="442" height="10.0" width="10.0" style="stroke:#000000; fill: #ffffff" /><rect x="535" y="178" height="10.0" width="10.0" style="stroke:#000000; fill: #ffffff" /><text style="text-anchor: middle; stroke: #ffffff;" transform="translate(395,555) ">480cm</text><text style="text-anchor: middle; stroke: #ffffff;" transform="translate(75,240) rotate(-90)">480cm</text><line x1="215" y1="35"x2="535"y2="448" style="stroke:#000000; fill: #ffffff" stroke-dasharray="5" /><line x1="215" y1="442"x2="535"y2="38" style="stroke:#000000; fill: #ffffff" stroke-dasharray="5" /><line x1="100" y1="0"x2="100"y2="480" style="stroke:#ffffff;marker-start: url(#beginArrow) ;marker-end: url(#endArrow);" /><line x1="150" y1="510"x2="635"y2="510" style="stroke:#ffffff;marker-start: url(#beginArrow) ;marker-end: url(#endArrow);" /><defs> <marker id="endArrow" markerWidth="10%" markerHeight="10%" refX="12.0" refY="6.0" orient="auto"> <path d="M0,0 L12,6 L0,12 L0,0" style="fill: #ffffff;" /> </marker><defs> <marker id="beginArrow" markerWidth="10%" markerHeight="10%" refX="0.0" refY="6.0" orient="auto"> <path d="M0,6 L12,0 L12,12 L0,6" style="fill: #ffffff;" /> </marker></svg>