<svg height="100%" width="100%" viewBox="0 0 660 560" x="0"   y="0"    preserveAspectRatio="xMinYMin"><rect x="155" y="0" height="360.0" width="360.0" style="stroke:#000000; fill: #ffffff" /><rect x="155" y="35" height="4.5" width="360.0" style="stroke:#000000; fill: #ffffff" /><rect x="155" y="325" height="4.5" width="360.0" style="stroke:#000000; fill: #ffffff" /><rect x="210" y="0" height="360.0" width="4.8" style="stroke:#000000; fill: #ffffff" /><rect x="265" y="0" height="360.0" width="4.8" style="stroke:#000000; fill: #ffffff" /><rect x="320" y="0" height="360.0" width="4.8" style="stroke:#000000; fill: #ffffff" /><rect x="375" y="0" height="360.0" width="4.8" style="stroke:#000000; fill: #ffffff" /><rect x="430" y="0" height="360.0" width="4.8" style="stroke:#000000; fill: #ffffff" /><rect x="485" y="0" height="360.0" width="4.8" style="stroke:#000000; fill: #ffffff" /><rect x="235" y="32" height="10.0" width="10.0" style="stroke:#000000; fill: #ffffff" /><rect x="415" y="32" height="10.0" width="10.0" style="stroke:#000000; fill: #ffffff" /><rect x="235" y="322" height="10.0" width="10.0" style="stroke:#000000; fill: #ffffff" /><rect x="415" y="322" height="10.0" width="10.0" style="stroke:#000000; fill: #ffffff" /><text style="text-anchor: middle; stroke: #ffffff;" transform="translate(335,435) ">360cm</text><text style="text-anchor: middle; stroke: #ffffff;" transform="translate(75,180) rotate(-90)">360cm</text><line x1="235" y1="35"x2="415"y2="322" style="stroke:#000000; fill: #ffffff" stroke-dasharray="5" /><line x1="235" y1="322"x2="415"y2="32" style="stroke:#000000; fill: #ffffff" stroke-dasharray="5" /><line x1="100" y1="0"x2="100"y2="360" style="stroke:#ffffff;marker-start: url(#beginArrow) ;marker-end: url(#endArrow);" /><line x1="150" y1="390"x2="515"y2="390" style="stroke:#ffffff;marker-start: url(#beginArrow) ;marker-end: url(#endArrow);" /><defs> <marker id="endArrow" markerWidth="10%" markerHeight="10%" refX="12.0" refY="6.0" orient="auto"> <path d="M0,0 L12,6 L0,12 L0,0" style="fill: #ffffff;" /> </marker><defs> <marker id="beginArrow" markerWidth="10%" markerHeight="10%" refX="0.0" refY="6.0" orient="auto"> <path d="M0,6 L12,0 L12,12 L0,6" style="fill: #ffffff;" /> </marker></svg>